ply 
 format ascii 1.0
 comment particle cloud from Fluids_v4
 element vertex 1000
property float x
property float y
property float z
end_header
100.099998 80.099998 100.099998
100.099998 80.099998 101.099998
100.099998 80.099998 102.099998
100.099998 80.099998 103.099998
100.099998 80.099998 104.099998
100.099998 80.099998 105.099998
100.099998 80.099998 106.099998
100.099998 80.099998 107.099998
100.099998 80.099998 108.099998
100.099998 80.099998 109.099998
100.099998 81.099998 100.099998
100.099998 81.099998 101.099998
100.099998 81.099998 102.099998
100.099998 81.099998 103.099998
100.099998 81.099998 104.099998
100.099998 81.099998 105.099998
100.099998 81.099998 106.099998
100.099998 81.099998 107.099998
100.099998 81.099998 108.099998
100.099998 81.099998 109.099998
100.099998 82.099998 100.099998
100.099998 82.099998 101.099998
100.099998 82.099998 102.099998
100.099998 82.099998 103.099998
100.099998 82.099998 104.099998
100.099998 82.099998 105.099998
100.099998 82.099998 106.099998
100.099998 82.099998 107.099998
100.099998 82.099998 108.099998
100.099998 82.099998 109.099998
100.099998 83.099998 100.099998
100.099998 83.099998 101.099998
100.099998 83.099998 102.099998
100.099998 83.099998 103.099998
100.099998 83.099998 104.099998
100.099998 83.099998 105.099998
100.099998 83.099998 106.099998
100.099998 83.099998 107.099998
100.099998 83.099998 108.099998
100.099998 83.099998 109.099998
100.099998 84.099998 100.099998
100.099998 84.099998 101.099998
100.099998 84.099998 102.099998
100.099998 84.099998 103.099998
100.099998 84.099998 104.099998
100.099998 84.099998 105.099998
100.099998 84.099998 106.099998
100.099998 84.099998 107.099998
100.099998 84.099998 108.099998
100.099998 84.099998 109.099998
100.099998 85.099998 100.099998
100.099998 85.099998 101.099998
100.099998 85.099998 102.099998
100.099998 85.099998 103.099998
100.099998 85.099998 104.099998
100.099998 85.099998 105.099998
100.099998 85.099998 106.099998
100.099998 85.099998 107.099998
100.099998 85.099998 108.099998
100.099998 85.099998 109.099998
100.099998 86.099998 100.099998
100.099998 86.099998 101.099998
100.099998 86.099998 102.099998
100.099998 86.099998 103.099998
100.099998 86.099998 104.099998
100.099998 86.099998 105.099998
100.099998 86.099998 106.099998
100.099998 86.099998 107.099998
100.099998 86.099998 108.099998
100.099998 86.099998 109.099998
100.099998 87.099998 100.099998
100.099998 87.099998 101.099998
100.099998 87.099998 102.099998
100.099998 87.099998 103.099998
100.099998 87.099998 104.099998
100.099998 87.099998 105.099998
100.099998 87.099998 106.099998
100.099998 87.099998 107.099998
100.099998 87.099998 108.099998
100.099998 87.099998 109.099998
100.099998 88.099998 100.099998
100.099998 88.099998 101.099998
100.099998 88.099998 102.099998
100.099998 88.099998 103.099998
100.099998 88.099998 104.099998
100.099998 88.099998 105.099998
100.099998 88.099998 106.099998
100.099998 88.099998 107.099998
100.099998 88.099998 108.099998
100.099998 88.099998 109.099998
100.099998 89.099998 100.099998
100.099998 89.099998 101.099998
100.099998 89.099998 102.099998
100.099998 89.099998 103.099998
100.099998 89.099998 104.099998
100.099998 89.099998 105.099998
100.099998 89.099998 106.099998
100.099998 89.099998 107.099998
100.099998 89.099998 108.099998
100.099998 89.099998 109.099998
101.099998 80.099998 100.099998
101.099998 80.099998 101.099998
101.099998 80.099998 102.099998
101.099998 80.099998 103.099998
101.099998 80.099998 104.099998
101.099998 80.099998 105.099998
101.099998 80.099998 106.099998
101.099998 80.099998 107.099998
101.099998 80.099998 108.099998
101.099998 80.099998 109.099998
101.099998 81.099998 100.099998
101.099998 81.099998 101.099998
101.099998 81.099998 102.099998
101.099998 81.099998 103.099998
101.099998 81.099998 104.099998
101.099998 81.099998 105.099998
101.099998 81.099998 106.099998
101.099998 81.099998 107.099998
101.099998 81.099998 108.099998
101.099998 81.099998 109.099998
101.099998 82.099998 100.099998
101.099998 82.099998 101.099998
101.099998 82.099998 102.099998
101.099998 82.099998 103.099998
101.099998 82.099998 104.099998
101.099998 82.099998 105.099998
101.099998 82.099998 106.099998
101.099998 82.099998 107.099998
101.099998 82.099998 108.099998
101.099998 82.099998 109.099998
101.099998 83.099998 100.099998
101.099998 83.099998 101.099998
101.099998 83.099998 102.099998
101.099998 83.099998 103.099998
101.099998 83.099998 104.099998
101.099998 83.099998 105.099998
101.099998 83.099998 106.099998
101.099998 83.099998 107.099998
101.099998 83.099998 108.099998
101.099998 83.099998 109.099998
101.099998 84.099998 100.099998
101.099998 84.099998 101.099998
101.099998 84.099998 102.099998
101.099998 84.099998 103.099998
101.099998 84.099998 104.099998
101.099998 84.099998 105.099998
101.099998 84.099998 106.099998
101.099998 84.099998 107.099998
101.099998 84.099998 108.099998
101.099998 84.099998 109.099998
101.099998 85.099998 100.099998
101.099998 85.099998 101.099998
101.099998 85.099998 102.099998
101.099998 85.099998 103.099998
101.099998 85.099998 104.099998
101.099998 85.099998 105.099998
101.099998 85.099998 106.099998
101.099998 85.099998 107.099998
101.099998 85.099998 108.099998
101.099998 85.099998 109.099998
101.099998 86.099998 100.099998
101.099998 86.099998 101.099998
101.099998 86.099998 102.099998
101.099998 86.099998 103.099998
101.099998 86.099998 104.099998
101.099998 86.099998 105.099998
101.099998 86.099998 106.099998
101.099998 86.099998 107.099998
101.099998 86.099998 108.099998
101.099998 86.099998 109.099998
101.099998 87.099998 100.099998
101.099998 87.099998 101.099998
101.099998 87.099998 102.099998
101.099998 87.099998 103.099998
101.099998 87.099998 104.099998
101.099998 87.099998 105.099998
101.099998 87.099998 106.099998
101.099998 87.099998 107.099998
101.099998 87.099998 108.099998
101.099998 87.099998 109.099998
101.099998 88.099998 100.099998
101.099998 88.099998 101.099998
101.099998 88.099998 102.099998
101.099998 88.099998 103.099998
101.099998 88.099998 104.099998
101.099998 88.099998 105.099998
101.099998 88.099998 106.099998
101.099998 88.099998 107.099998
101.099998 88.099998 108.099998
101.099998 88.099998 109.099998
101.099998 89.099998 100.099998
101.099998 89.099998 101.099998
101.099998 89.099998 102.099998
101.099998 89.099998 103.099998
101.099998 89.099998 104.099998
101.099998 89.099998 105.099998
101.099998 89.099998 106.099998
101.099998 89.099998 107.099998
101.099998 89.099998 108.099998
101.099998 89.099998 109.099998
102.099998 80.099998 100.099998
102.099998 80.099998 101.099998
102.099998 80.099998 102.099998
102.099998 80.099998 103.099998
102.099998 80.099998 104.099998
102.099998 80.099998 105.099998
102.099998 80.099998 106.099998
102.099998 80.099998 107.099998
102.099998 80.099998 108.099998
102.099998 80.099998 109.099998
102.099998 81.099998 100.099998
102.099998 81.099998 101.099998
102.099998 81.099998 102.099998
102.099998 81.099998 103.099998
102.099998 81.099998 104.099998
102.099998 81.099998 105.099998
102.099998 81.099998 106.099998
102.099998 81.099998 107.099998
102.099998 81.099998 108.099998
102.099998 81.099998 109.099998
102.099998 82.099998 100.099998
102.099998 82.099998 101.099998
102.099998 82.099998 102.099998
102.099998 82.099998 103.099998
102.099998 82.099998 104.099998
102.099998 82.099998 105.099998
102.099998 82.099998 106.099998
102.099998 82.099998 107.099998
102.099998 82.099998 108.099998
102.099998 82.099998 109.099998
102.099998 83.099998 100.099998
102.099998 83.099998 101.099998
102.099998 83.099998 102.099998
102.099998 83.099998 103.099998
102.099998 83.099998 104.099998
102.099998 83.099998 105.099998
102.099998 83.099998 106.099998
102.099998 83.099998 107.099998
102.099998 83.099998 108.099998
102.099998 83.099998 109.099998
102.099998 84.099998 100.099998
102.099998 84.099998 101.099998
102.099998 84.099998 102.099998
102.099998 84.099998 103.099998
102.099998 84.099998 104.099998
102.099998 84.099998 105.099998
102.099998 84.099998 106.099998
102.099998 84.099998 107.099998
102.099998 84.099998 108.099998
102.099998 84.099998 109.099998
102.099998 85.099998 100.099998
102.099998 85.099998 101.099998
102.099998 85.099998 102.099998
102.099998 85.099998 103.099998
102.099998 85.099998 104.099998
102.099998 85.099998 105.099998
102.099998 85.099998 106.099998
102.099998 85.099998 107.099998
102.099998 85.099998 108.099998
102.099998 85.099998 109.099998
102.099998 86.099998 100.099998
102.099998 86.099998 101.099998
102.099998 86.099998 102.099998
102.099998 86.099998 103.099998
102.099998 86.099998 104.099998
102.099998 86.099998 105.099998
102.099998 86.099998 106.099998
102.099998 86.099998 107.099998
102.099998 86.099998 108.099998
102.099998 86.099998 109.099998
102.099998 87.099998 100.099998
102.099998 87.099998 101.099998
102.099998 87.099998 102.099998
102.099998 87.099998 103.099998
102.099998 87.099998 104.099998
102.099998 87.099998 105.099998
102.099998 87.099998 106.099998
102.099998 87.099998 107.099998
102.099998 87.099998 108.099998
102.099998 87.099998 109.099998
102.099998 88.099998 100.099998
102.099998 88.099998 101.099998
102.099998 88.099998 102.099998
102.099998 88.099998 103.099998
102.099998 88.099998 104.099998
102.099998 88.099998 105.099998
102.099998 88.099998 106.099998
102.099998 88.099998 107.099998
102.099998 88.099998 108.099998
102.099998 88.099998 109.099998
102.099998 89.099998 100.099998
102.099998 89.099998 101.099998
102.099998 89.099998 102.099998
102.099998 89.099998 103.099998
102.099998 89.099998 104.099998
102.099998 89.099998 105.099998
102.099998 89.099998 106.099998
102.099998 89.099998 107.099998
102.099998 89.099998 108.099998
102.099998 89.099998 109.099998
103.099998 80.099998 100.099998
103.099998 80.099998 101.099998
103.099998 80.099998 102.099998
103.099998 80.099998 103.099998
103.099998 80.099998 104.099998
103.099998 80.099998 105.099998
103.099998 80.099998 106.099998
103.099998 80.099998 107.099998
103.099998 80.099998 108.099998
103.099998 80.099998 109.099998
103.099998 81.099998 100.099998
103.099998 81.099998 101.099998
103.099998 81.099998 102.099998
103.099998 81.099998 103.099998
103.099998 81.099998 104.099998
103.099998 81.099998 105.099998
103.099998 81.099998 106.099998
103.099998 81.099998 107.099998
103.099998 81.099998 108.099998
103.099998 81.099998 109.099998
103.099998 82.099998 100.099998
103.099998 82.099998 101.099998
103.099998 82.099998 102.099998
103.099998 82.099998 103.099998
103.099998 82.099998 104.099998
103.099998 82.099998 105.099998
103.099998 82.099998 106.099998
103.099998 82.099998 107.099998
103.099998 82.099998 108.099998
103.099998 82.099998 109.099998
103.099998 83.099998 100.099998
103.099998 83.099998 101.099998
103.099998 83.099998 102.099998
103.099998 83.099998 103.099998
103.099998 83.099998 104.099998
103.099998 83.099998 105.099998
103.099998 83.099998 106.099998
103.099998 83.099998 107.099998
103.099998 83.099998 108.099998
103.099998 83.099998 109.099998
103.099998 84.099998 100.099998
103.099998 84.099998 101.099998
103.099998 84.099998 102.099998
103.099998 84.099998 103.099998
103.099998 84.099998 104.099998
103.099998 84.099998 105.099998
103.099998 84.099998 106.099998
103.099998 84.099998 107.099998
103.099998 84.099998 108.099998
103.099998 84.099998 109.099998
103.099998 85.099998 100.099998
103.099998 85.099998 101.099998
103.099998 85.099998 102.099998
103.099998 85.099998 103.099998
103.099998 85.099998 104.099998
103.099998 85.099998 105.099998
103.099998 85.099998 106.099998
103.099998 85.099998 107.099998
103.099998 85.099998 108.099998
103.099998 85.099998 109.099998
103.099998 86.099998 100.099998
103.099998 86.099998 101.099998
103.099998 86.099998 102.099998
103.099998 86.099998 103.099998
103.099998 86.099998 104.099998
103.099998 86.099998 105.099998
103.099998 86.099998 106.099998
103.099998 86.099998 107.099998
103.099998 86.099998 108.099998
103.099998 86.099998 109.099998
103.099998 87.099998 100.099998
103.099998 87.099998 101.099998
103.099998 87.099998 102.099998
103.099998 87.099998 103.099998
103.099998 87.099998 104.099998
103.099998 87.099998 105.099998
103.099998 87.099998 106.099998
103.099998 87.099998 107.099998
103.099998 87.099998 108.099998
103.099998 87.099998 109.099998
103.099998 88.099998 100.099998
103.099998 88.099998 101.099998
103.099998 88.099998 102.099998
103.099998 88.099998 103.099998
103.099998 88.099998 104.099998
103.099998 88.099998 105.099998
103.099998 88.099998 106.099998
103.099998 88.099998 107.099998
103.099998 88.099998 108.099998
103.099998 88.099998 109.099998
103.099998 89.099998 100.099998
103.099998 89.099998 101.099998
103.099998 89.099998 102.099998
103.099998 89.099998 103.099998
103.099998 89.099998 104.099998
103.099998 89.099998 105.099998
103.099998 89.099998 106.099998
103.099998 89.099998 107.099998
103.099998 89.099998 108.099998
103.099998 89.099998 109.099998
104.099998 80.099998 100.099998
104.099998 80.099998 101.099998
104.099998 80.099998 102.099998
104.099998 80.099998 103.099998
104.099998 80.099998 104.099998
104.099998 80.099998 105.099998
104.099998 80.099998 106.099998
104.099998 80.099998 107.099998
104.099998 80.099998 108.099998
104.099998 80.099998 109.099998
104.099998 81.099998 100.099998
104.099998 81.099998 101.099998
104.099998 81.099998 102.099998
104.099998 81.099998 103.099998
104.099998 81.099998 104.099998
104.099998 81.099998 105.099998
104.099998 81.099998 106.099998
104.099998 81.099998 107.099998
104.099998 81.099998 108.099998
104.099998 81.099998 109.099998
104.099998 82.099998 100.099998
104.099998 82.099998 101.099998
104.099998 82.099998 102.099998
104.099998 82.099998 103.099998
104.099998 82.099998 104.099998
104.099998 82.099998 105.099998
104.099998 82.099998 106.099998
104.099998 82.099998 107.099998
104.099998 82.099998 108.099998
104.099998 82.099998 109.099998
104.099998 83.099998 100.099998
104.099998 83.099998 101.099998
104.099998 83.099998 102.099998
104.099998 83.099998 103.099998
104.099998 83.099998 104.099998
104.099998 83.099998 105.099998
104.099998 83.099998 106.099998
104.099998 83.099998 107.099998
104.099998 83.099998 108.099998
104.099998 83.099998 109.099998
104.099998 84.099998 100.099998
104.099998 84.099998 101.099998
104.099998 84.099998 102.099998
104.099998 84.099998 103.099998
104.099998 84.099998 104.099998
104.099998 84.099998 105.099998
104.099998 84.099998 106.099998
104.099998 84.099998 107.099998
104.099998 84.099998 108.099998
104.099998 84.099998 109.099998
104.099998 85.099998 100.099998
104.099998 85.099998 101.099998
104.099998 85.099998 102.099998
104.099998 85.099998 103.099998
104.099998 85.099998 104.099998
104.099998 85.099998 105.099998
104.099998 85.099998 106.099998
104.099998 85.099998 107.099998
104.099998 85.099998 108.099998
104.099998 85.099998 109.099998
104.099998 86.099998 100.099998
104.099998 86.099998 101.099998
104.099998 86.099998 102.099998
104.099998 86.099998 103.099998
104.099998 86.099998 104.099998
104.099998 86.099998 105.099998
104.099998 86.099998 106.099998
104.099998 86.099998 107.099998
104.099998 86.099998 108.099998
104.099998 86.099998 109.099998
104.099998 87.099998 100.099998
104.099998 87.099998 101.099998
104.099998 87.099998 102.099998
104.099998 87.099998 103.099998
104.099998 87.099998 104.099998
104.099998 87.099998 105.099998
104.099998 87.099998 106.099998
104.099998 87.099998 107.099998
104.099998 87.099998 108.099998
104.099998 87.099998 109.099998
104.099998 88.099998 100.099998
104.099998 88.099998 101.099998
104.099998 88.099998 102.099998
104.099998 88.099998 103.099998
104.099998 88.099998 104.099998
104.099998 88.099998 105.099998
104.099998 88.099998 106.099998
104.099998 88.099998 107.099998
104.099998 88.099998 108.099998
104.099998 88.099998 109.099998
104.099998 89.099998 100.099998
104.099998 89.099998 101.099998
104.099998 89.099998 102.099998
104.099998 89.099998 103.099998
104.099998 89.099998 104.099998
104.099998 89.099998 105.099998
104.099998 89.099998 106.099998
104.099998 89.099998 107.099998
104.099998 89.099998 108.099998
104.099998 89.099998 109.099998
105.099998 80.099998 100.099998
105.099998 80.099998 101.099998
105.099998 80.099998 102.099998
105.099998 80.099998 103.099998
105.099998 80.099998 104.099998
105.099998 80.099998 105.099998
105.099998 80.099998 106.099998
105.099998 80.099998 107.099998
105.099998 80.099998 108.099998
105.099998 80.099998 109.099998
105.099998 81.099998 100.099998
105.099998 81.099998 101.099998
105.099998 81.099998 102.099998
105.099998 81.099998 103.099998
105.099998 81.099998 104.099998
105.099998 81.099998 105.099998
105.099998 81.099998 106.099998
105.099998 81.099998 107.099998
105.099998 81.099998 108.099998
105.099998 81.099998 109.099998
105.099998 82.099998 100.099998
105.099998 82.099998 101.099998
105.099998 82.099998 102.099998
105.099998 82.099998 103.099998
105.099998 82.099998 104.099998
105.099998 82.099998 105.099998
105.099998 82.099998 106.099998
105.099998 82.099998 107.099998
105.099998 82.099998 108.099998
105.099998 82.099998 109.099998
105.099998 83.099998 100.099998
105.099998 83.099998 101.099998
105.099998 83.099998 102.099998
105.099998 83.099998 103.099998
105.099998 83.099998 104.099998
105.099998 83.099998 105.099998
105.099998 83.099998 106.099998
105.099998 83.099998 107.099998
105.099998 83.099998 108.099998
105.099998 83.099998 109.099998
105.099998 84.099998 100.099998
105.099998 84.099998 101.099998
105.099998 84.099998 102.099998
105.099998 84.099998 103.099998
105.099998 84.099998 104.099998
105.099998 84.099998 105.099998
105.099998 84.099998 106.099998
105.099998 84.099998 107.099998
105.099998 84.099998 108.099998
105.099998 84.099998 109.099998
105.099998 85.099998 100.099998
105.099998 85.099998 101.099998
105.099998 85.099998 102.099998
105.099998 85.099998 103.099998
105.099998 85.099998 104.099998
105.099998 85.099998 105.099998
105.099998 85.099998 106.099998
105.099998 85.099998 107.099998
105.099998 85.099998 108.099998
105.099998 85.099998 109.099998
105.099998 86.099998 100.099998
105.099998 86.099998 101.099998
105.099998 86.099998 102.099998
105.099998 86.099998 103.099998
105.099998 86.099998 104.099998
105.099998 86.099998 105.099998
105.099998 86.099998 106.099998
105.099998 86.099998 107.099998
105.099998 86.099998 108.099998
105.099998 86.099998 109.099998
105.099998 87.099998 100.099998
105.099998 87.099998 101.099998
105.099998 87.099998 102.099998
105.099998 87.099998 103.099998
105.099998 87.099998 104.099998
105.099998 87.099998 105.099998
105.099998 87.099998 106.099998
105.099998 87.099998 107.099998
105.099998 87.099998 108.099998
105.099998 87.099998 109.099998
105.099998 88.099998 100.099998
105.099998 88.099998 101.099998
105.099998 88.099998 102.099998
105.099998 88.099998 103.099998
105.099998 88.099998 104.099998
105.099998 88.099998 105.099998
105.099998 88.099998 106.099998
105.099998 88.099998 107.099998
105.099998 88.099998 108.099998
105.099998 88.099998 109.099998
105.099998 89.099998 100.099998
105.099998 89.099998 101.099998
105.099998 89.099998 102.099998
105.099998 89.099998 103.099998
105.099998 89.099998 104.099998
105.099998 89.099998 105.099998
105.099998 89.099998 106.099998
105.099998 89.099998 107.099998
105.099998 89.099998 108.099998
105.099998 89.099998 109.099998
106.099998 80.099998 100.099998
106.099998 80.099998 101.099998
106.099998 80.099998 102.099998
106.099998 80.099998 103.099998
106.099998 80.099998 104.099998
106.099998 80.099998 105.099998
106.099998 80.099998 106.099998
106.099998 80.099998 107.099998
106.099998 80.099998 108.099998
106.099998 80.099998 109.099998
106.099998 81.099998 100.099998
106.099998 81.099998 101.099998
106.099998 81.099998 102.099998
106.099998 81.099998 103.099998
106.099998 81.099998 104.099998
106.099998 81.099998 105.099998
106.099998 81.099998 106.099998
106.099998 81.099998 107.099998
106.099998 81.099998 108.099998
106.099998 81.099998 109.099998
106.099998 82.099998 100.099998
106.099998 82.099998 101.099998
106.099998 82.099998 102.099998
106.099998 82.099998 103.099998
106.099998 82.099998 104.099998
106.099998 82.099998 105.099998
106.099998 82.099998 106.099998
106.099998 82.099998 107.099998
106.099998 82.099998 108.099998
106.099998 82.099998 109.099998
106.099998 83.099998 100.099998
106.099998 83.099998 101.099998
106.099998 83.099998 102.099998
106.099998 83.099998 103.099998
106.099998 83.099998 104.099998
106.099998 83.099998 105.099998
106.099998 83.099998 106.099998
106.099998 83.099998 107.099998
106.099998 83.099998 108.099998
106.099998 83.099998 109.099998
106.099998 84.099998 100.099998
106.099998 84.099998 101.099998
106.099998 84.099998 102.099998
106.099998 84.099998 103.099998
106.099998 84.099998 104.099998
106.099998 84.099998 105.099998
106.099998 84.099998 106.099998
106.099998 84.099998 107.099998
106.099998 84.099998 108.099998
106.099998 84.099998 109.099998
106.099998 85.099998 100.099998
106.099998 85.099998 101.099998
106.099998 85.099998 102.099998
106.099998 85.099998 103.099998
106.099998 85.099998 104.099998
106.099998 85.099998 105.099998
106.099998 85.099998 106.099998
106.099998 85.099998 107.099998
106.099998 85.099998 108.099998
106.099998 85.099998 109.099998
106.099998 86.099998 100.099998
106.099998 86.099998 101.099998
106.099998 86.099998 102.099998
106.099998 86.099998 103.099998
106.099998 86.099998 104.099998
106.099998 86.099998 105.099998
106.099998 86.099998 106.099998
106.099998 86.099998 107.099998
106.099998 86.099998 108.099998
106.099998 86.099998 109.099998
106.099998 87.099998 100.099998
106.099998 87.099998 101.099998
106.099998 87.099998 102.099998
106.099998 87.099998 103.099998
106.099998 87.099998 104.099998
106.099998 87.099998 105.099998
106.099998 87.099998 106.099998
106.099998 87.099998 107.099998
106.099998 87.099998 108.099998
106.099998 87.099998 109.099998
106.099998 88.099998 100.099998
106.099998 88.099998 101.099998
106.099998 88.099998 102.099998
106.099998 88.099998 103.099998
106.099998 88.099998 104.099998
106.099998 88.099998 105.099998
106.099998 88.099998 106.099998
106.099998 88.099998 107.099998
106.099998 88.099998 108.099998
106.099998 88.099998 109.099998
106.099998 89.099998 100.099998
106.099998 89.099998 101.099998
106.099998 89.099998 102.099998
106.099998 89.099998 103.099998
106.099998 89.099998 104.099998
106.099998 89.099998 105.099998
106.099998 89.099998 106.099998
106.099998 89.099998 107.099998
106.099998 89.099998 108.099998
106.099998 89.099998 109.099998
107.099998 80.099998 100.099998
107.099998 80.099998 101.099998
107.099998 80.099998 102.099998
107.099998 80.099998 103.099998
107.099998 80.099998 104.099998
107.099998 80.099998 105.099998
107.099998 80.099998 106.099998
107.099998 80.099998 107.099998
107.099998 80.099998 108.099998
107.099998 80.099998 109.099998
107.099998 81.099998 100.099998
107.099998 81.099998 101.099998
107.099998 81.099998 102.099998
107.099998 81.099998 103.099998
107.099998 81.099998 104.099998
107.099998 81.099998 105.099998
107.099998 81.099998 106.099998
107.099998 81.099998 107.099998
107.099998 81.099998 108.099998
107.099998 81.099998 109.099998
107.099998 82.099998 100.099998
107.099998 82.099998 101.099998
107.099998 82.099998 102.099998
107.099998 82.099998 103.099998
107.099998 82.099998 104.099998
107.099998 82.099998 105.099998
107.099998 82.099998 106.099998
107.099998 82.099998 107.099998
107.099998 82.099998 108.099998
107.099998 82.099998 109.099998
107.099998 83.099998 100.099998
107.099998 83.099998 101.099998
107.099998 83.099998 102.099998
107.099998 83.099998 103.099998
107.099998 83.099998 104.099998
107.099998 83.099998 105.099998
107.099998 83.099998 106.099998
107.099998 83.099998 107.099998
107.099998 83.099998 108.099998
107.099998 83.099998 109.099998
107.099998 84.099998 100.099998
107.099998 84.099998 101.099998
107.099998 84.099998 102.099998
107.099998 84.099998 103.099998
107.099998 84.099998 104.099998
107.099998 84.099998 105.099998
107.099998 84.099998 106.099998
107.099998 84.099998 107.099998
107.099998 84.099998 108.099998
107.099998 84.099998 109.099998
107.099998 85.099998 100.099998
107.099998 85.099998 101.099998
107.099998 85.099998 102.099998
107.099998 85.099998 103.099998
107.099998 85.099998 104.099998
107.099998 85.099998 105.099998
107.099998 85.099998 106.099998
107.099998 85.099998 107.099998
107.099998 85.099998 108.099998
107.099998 85.099998 109.099998
107.099998 86.099998 100.099998
107.099998 86.099998 101.099998
107.099998 86.099998 102.099998
107.099998 86.099998 103.099998
107.099998 86.099998 104.099998
107.099998 86.099998 105.099998
107.099998 86.099998 106.099998
107.099998 86.099998 107.099998
107.099998 86.099998 108.099998
107.099998 86.099998 109.099998
107.099998 87.099998 100.099998
107.099998 87.099998 101.099998
107.099998 87.099998 102.099998
107.099998 87.099998 103.099998
107.099998 87.099998 104.099998
107.099998 87.099998 105.099998
107.099998 87.099998 106.099998
107.099998 87.099998 107.099998
107.099998 87.099998 108.099998
107.099998 87.099998 109.099998
107.099998 88.099998 100.099998
107.099998 88.099998 101.099998
107.099998 88.099998 102.099998
107.099998 88.099998 103.099998
107.099998 88.099998 104.099998
107.099998 88.099998 105.099998
107.099998 88.099998 106.099998
107.099998 88.099998 107.099998
107.099998 88.099998 108.099998
107.099998 88.099998 109.099998
107.099998 89.099998 100.099998
107.099998 89.099998 101.099998
107.099998 89.099998 102.099998
107.099998 89.099998 103.099998
107.099998 89.099998 104.099998
107.099998 89.099998 105.099998
107.099998 89.099998 106.099998
107.099998 89.099998 107.099998
107.099998 89.099998 108.099998
107.099998 89.099998 109.099998
108.099998 80.099998 100.099998
108.099998 80.099998 101.099998
108.099998 80.099998 102.099998
108.099998 80.099998 103.099998
108.099998 80.099998 104.099998
108.099998 80.099998 105.099998
108.099998 80.099998 106.099998
108.099998 80.099998 107.099998
108.099998 80.099998 108.099998
108.099998 80.099998 109.099998
108.099998 81.099998 100.099998
108.099998 81.099998 101.099998
108.099998 81.099998 102.099998
108.099998 81.099998 103.099998
108.099998 81.099998 104.099998
108.099998 81.099998 105.099998
108.099998 81.099998 106.099998
108.099998 81.099998 107.099998
108.099998 81.099998 108.099998
108.099998 81.099998 109.099998
108.099998 82.099998 100.099998
108.099998 82.099998 101.099998
108.099998 82.099998 102.099998
108.099998 82.099998 103.099998
108.099998 82.099998 104.099998
108.099998 82.099998 105.099998
108.099998 82.099998 106.099998
108.099998 82.099998 107.099998
108.099998 82.099998 108.099998
108.099998 82.099998 109.099998
108.099998 83.099998 100.099998
108.099998 83.099998 101.099998
108.099998 83.099998 102.099998
108.099998 83.099998 103.099998
108.099998 83.099998 104.099998
108.099998 83.099998 105.099998
108.099998 83.099998 106.099998
108.099998 83.099998 107.099998
108.099998 83.099998 108.099998
108.099998 83.099998 109.099998
108.099998 84.099998 100.099998
108.099998 84.099998 101.099998
108.099998 84.099998 102.099998
108.099998 84.099998 103.099998
108.099998 84.099998 104.099998
108.099998 84.099998 105.099998
108.099998 84.099998 106.099998
108.099998 84.099998 107.099998
108.099998 84.099998 108.099998
108.099998 84.099998 109.099998
108.099998 85.099998 100.099998
108.099998 85.099998 101.099998
108.099998 85.099998 102.099998
108.099998 85.099998 103.099998
108.099998 85.099998 104.099998
108.099998 85.099998 105.099998
108.099998 85.099998 106.099998
108.099998 85.099998 107.099998
108.099998 85.099998 108.099998
108.099998 85.099998 109.099998
108.099998 86.099998 100.099998
108.099998 86.099998 101.099998
108.099998 86.099998 102.099998
108.099998 86.099998 103.099998
108.099998 86.099998 104.099998
108.099998 86.099998 105.099998
108.099998 86.099998 106.099998
108.099998 86.099998 107.099998
108.099998 86.099998 108.099998
108.099998 86.099998 109.099998
108.099998 87.099998 100.099998
108.099998 87.099998 101.099998
108.099998 87.099998 102.099998
108.099998 87.099998 103.099998
108.099998 87.099998 104.099998
108.099998 87.099998 105.099998
108.099998 87.099998 106.099998
108.099998 87.099998 107.099998
108.099998 87.099998 108.099998
108.099998 87.099998 109.099998
108.099998 88.099998 100.099998
108.099998 88.099998 101.099998
108.099998 88.099998 102.099998
108.099998 88.099998 103.099998
108.099998 88.099998 104.099998
108.099998 88.099998 105.099998
108.099998 88.099998 106.099998
108.099998 88.099998 107.099998
108.099998 88.099998 108.099998
108.099998 88.099998 109.099998
108.099998 89.099998 100.099998
108.099998 89.099998 101.099998
108.099998 89.099998 102.099998
108.099998 89.099998 103.099998
108.099998 89.099998 104.099998
108.099998 89.099998 105.099998
108.099998 89.099998 106.099998
108.099998 89.099998 107.099998
108.099998 89.099998 108.099998
108.099998 89.099998 109.099998
109.099998 80.099998 100.099998
109.099998 80.099998 101.099998
109.099998 80.099998 102.099998
109.099998 80.099998 103.099998
109.099998 80.099998 104.099998
109.099998 80.099998 105.099998
109.099998 80.099998 106.099998
109.099998 80.099998 107.099998
109.099998 80.099998 108.099998
109.099998 80.099998 109.099998
109.099998 81.099998 100.099998
109.099998 81.099998 101.099998
109.099998 81.099998 102.099998
109.099998 81.099998 103.099998
109.099998 81.099998 104.099998
109.099998 81.099998 105.099998
109.099998 81.099998 106.099998
109.099998 81.099998 107.099998
109.099998 81.099998 108.099998
109.099998 81.099998 109.099998
109.099998 82.099998 100.099998
109.099998 82.099998 101.099998
109.099998 82.099998 102.099998
109.099998 82.099998 103.099998
109.099998 82.099998 104.099998
109.099998 82.099998 105.099998
109.099998 82.099998 106.099998
109.099998 82.099998 107.099998
109.099998 82.099998 108.099998
109.099998 82.099998 109.099998
109.099998 83.099998 100.099998
109.099998 83.099998 101.099998
109.099998 83.099998 102.099998
109.099998 83.099998 103.099998
109.099998 83.099998 104.099998
109.099998 83.099998 105.099998
109.099998 83.099998 106.099998
109.099998 83.099998 107.099998
109.099998 83.099998 108.099998
109.099998 83.099998 109.099998
109.099998 84.099998 100.099998
109.099998 84.099998 101.099998
109.099998 84.099998 102.099998
109.099998 84.099998 103.099998
109.099998 84.099998 104.099998
109.099998 84.099998 105.099998
109.099998 84.099998 106.099998
109.099998 84.099998 107.099998
109.099998 84.099998 108.099998
109.099998 84.099998 109.099998
109.099998 85.099998 100.099998
109.099998 85.099998 101.099998
109.099998 85.099998 102.099998
109.099998 85.099998 103.099998
109.099998 85.099998 104.099998
109.099998 85.099998 105.099998
109.099998 85.099998 106.099998
109.099998 85.099998 107.099998
109.099998 85.099998 108.099998
109.099998 85.099998 109.099998
109.099998 86.099998 100.099998
109.099998 86.099998 101.099998
109.099998 86.099998 102.099998
109.099998 86.099998 103.099998
109.099998 86.099998 104.099998
109.099998 86.099998 105.099998
109.099998 86.099998 106.099998
109.099998 86.099998 107.099998
109.099998 86.099998 108.099998
109.099998 86.099998 109.099998
109.099998 87.099998 100.099998
109.099998 87.099998 101.099998
109.099998 87.099998 102.099998
109.099998 87.099998 103.099998
109.099998 87.099998 104.099998
109.099998 87.099998 105.099998
109.099998 87.099998 106.099998
109.099998 87.099998 107.099998
109.099998 87.099998 108.099998
109.099998 87.099998 109.099998
109.099998 88.099998 100.099998
109.099998 88.099998 101.099998
109.099998 88.099998 102.099998
109.099998 88.099998 103.099998
109.099998 88.099998 104.099998
109.099998 88.099998 105.099998
109.099998 88.099998 106.099998
109.099998 88.099998 107.099998
109.099998 88.099998 108.099998
109.099998 88.099998 109.099998
109.099998 89.099998 100.099998
109.099998 89.099998 101.099998
109.099998 89.099998 102.099998
109.099998 89.099998 103.099998
109.099998 89.099998 104.099998
109.099998 89.099998 105.099998
109.099998 89.099998 106.099998
109.099998 89.099998 107.099998
109.099998 89.099998 108.099998
109.099998 89.099998 109.099998
